<svg width="56" height="61" viewBox="0 0 56 61" fill="none" xmlns="http://www.w3.org/2000/svg">
<path d="M49 23.5105V23.3834C49 20.5365 49 19.113 48.4914 18.0256C48.044 17.0691 47.3301 16.2915 46.452 15.8041C45.4537 15.2501 44.1469 15.2501 41.5333 15.2501L7 15.2501M7 15.2501L7 42.7001C7 45.547 7 46.9705 7.50864 48.0579C7.95605 49.0144 8.66996 49.792 9.54804 50.2794C10.5463 50.8334 11.8531 50.8334 14.4667 50.8334H16.3333M7 15.2501L7.00001 14.2334C7.00001 12.8099 7.00001 12.0982 7.25432 11.5545C7.47803 11.0763 7.83498 10.6875 8.27403 10.4438C8.77316 10.1667 9.42655 10.1667 10.7333 10.1667H21.7869C22.3577 10.1667 22.643 10.1667 22.9115 10.237C23.1496 10.2992 23.3772 10.4019 23.586 10.5413C23.8215 10.6985 24.0233 10.9183 24.4268 11.3578L28 15.2501M37.3333 35.5834L42 40.6667M25.6667 53.3751V47.0209L43.1667 27.9584L49 34.3126L31.5 53.3751H25.6667Z" stroke="white" stroke-width="2" stroke-linecap="round" stroke-linejoin="round"/>
</svg>
