<svg width="68" height="76" viewBox="0 0 68 76" fill="none" xmlns="http://www.w3.org/2000/svg">
<path d="M22.5861 12.6666H20.3281C17.1657 12.6666 15.5833 12.6666 14.3754 13.3569C13.313 13.9641 12.4498 14.9323 11.9084 16.124C11.293 17.4788 11.293 19.2536 11.293 22.8006V53.2006C11.293 56.7476 11.293 58.5201 11.9084 59.8749C12.4498 61.0666 13.313 62.0365 14.3754 62.6437C15.5821 63.3333 17.1626 63.3333 20.3188 63.3333H22.5861M22.5861 12.6666H47.4317C50.5941 12.6666 52.173 12.6666 53.3809 13.3569C54.4434 13.9641 55.3095 14.9323 55.8508 16.124C56.4657 17.4774 56.4657 19.2501 56.4657 22.7902V53.2113C56.4657 56.7514 56.4657 58.5215 55.8508 59.8749C55.3095 61.0666 54.4434 62.0365 53.3809 62.6437C52.1742 63.3333 50.596 63.3333 47.4398 63.3333H22.5861M22.5861 12.6666V63.3333M33.8793 34.8333H45.1725M33.8793 25.3333H45.1725" stroke="white" stroke-width="2" stroke-linecap="round" stroke-linejoin="round"/>
</svg>
