<svg width="42" height="45" viewBox="0 0 42 45" fill="none" xmlns="http://www.w3.org/2000/svg">
<path d="M1 18.3856C1 17.1915 1.53342 16.0599 2.45447 15.3001L18.4545 2.10006C19.9325 0.880719 22.0675 0.880721 23.5455 2.10006L39.5455 15.3001C40.4666 16.0599 41 17.1915 41 18.3856V40C41 42.2091 39.2091 44 37 44H28.3158C27.7635 44 27.3158 43.5523 27.3158 43V32.8C27.3158 31.6954 26.4204 30.8 25.3158 30.8H16.6842C15.5796 30.8 14.6842 31.6954 14.6842 32.8V43C14.6842 43.5523 14.2365 44 13.6842 44H5C2.79086 44 1 42.2091 1 40L1 18.3856Z" stroke="white" stroke-width="2"/>
</svg>
