<svg width="76" height="76" viewBox="0 0 76 76" fill="none" xmlns="http://www.w3.org/2000/svg">
<path d="M53.8333 63.3333C53.8333 58.0865 46.7445 53.8333 38 53.8333C29.2555 53.8333 22.1667 58.0865 22.1667 63.3333M66.5 53.8344C66.5 49.9388 62.592 46.5909 57 45.1249M9.5 53.8344C9.5 49.9388 13.408 46.5909 19 45.1249M57 32.4143C58.9435 30.6747 60.1667 28.1468 60.1667 25.3333C60.1667 20.0865 55.9134 15.8333 50.6667 15.8333C48.2335 15.8333 46.0141 16.748 44.3333 18.2522M19 32.4143C17.0565 30.6747 15.8333 28.1468 15.8333 25.3333C15.8333 20.0865 20.0866 15.8333 25.3333 15.8333C27.7665 15.8333 29.9859 16.748 31.6667 18.2522M38 44.3333C32.7533 44.3333 28.5 40.08 28.5 34.8333C28.5 29.5865 32.7533 25.3333 38 25.3333C43.2467 25.3333 47.5 29.5865 47.5 34.8333C47.5 40.08 43.2467 44.3333 38 44.3333Z" stroke="white" stroke-width="2" stroke-linecap="round" stroke-linejoin="round"/>
</svg>
