<svg width="56" height="56" viewBox="0 0 56 56" fill="none" xmlns="http://www.w3.org/2000/svg">
<path d="M50.5536 19.1878L49.5644 18.6044C49.4108 18.5137 49.3353 18.4683 49.2611 18.4212C48.5235 17.9527 47.9017 17.3054 47.448 16.531C47.4024 16.453 47.3594 16.3713 47.2714 16.2098C47.1835 16.0485 47.139 15.9668 47.0981 15.8859C46.6911 15.0802 46.471 14.1823 46.4578 13.2685C46.4565 13.1766 46.4568 13.0827 46.4598 12.8961L46.4791 11.6782C46.51 9.72921 46.5256 8.75169 46.2672 7.87443C46.0378 7.0952 45.6539 6.37748 45.1413 5.76839C44.5619 5.0799 43.7599 4.58872 42.1541 3.6076L40.8203 2.79264C39.219 1.81425 38.4181 1.32489 37.5679 1.13833C36.8159 0.973287 36.0397 0.980935 35.2903 1.15931C34.4445 1.36063 33.6536 1.86275 32.0728 2.8664L32.0638 2.87095L31.1081 3.4777C30.957 3.57364 30.8805 3.62201 30.8048 3.66665C30.0531 4.10976 29.214 4.35477 28.3545 4.38402C28.2678 4.38697 28.1797 4.38697 28.0035 4.38697C27.8284 4.38697 27.7365 4.38697 27.65 4.38402C26.7886 4.35464 25.9478 4.1083 25.1949 3.66336C25.1191 3.61852 25.044 3.56977 24.8926 3.47339L23.9308 2.86116C22.3392 1.848 21.5421 1.34066 20.6917 1.13833C19.9392 0.959333 19.1604 0.954379 18.4056 1.12155C17.5533 1.31031 16.7521 1.8033 15.1499 2.78928L15.1428 2.79264L13.8256 3.60323L13.811 3.61268C12.2232 4.58979 11.4274 5.07952 10.8529 5.7652C10.343 6.37367 9.96192 7.09027 9.73382 7.86743C9.47599 8.7459 9.48973 9.72551 9.52081 11.6837L9.5401 12.8999C9.54303 13.084 9.54809 13.1755 9.54683 13.2661C9.53404 14.1819 9.311 15.0815 8.90284 15.8887C8.86247 15.9685 8.81898 16.0483 8.73212 16.2077C8.6452 16.3673 8.6031 16.4466 8.55803 16.5236C8.1023 17.3022 7.47775 17.9533 6.73548 18.4226C6.66206 18.469 6.58468 18.5136 6.43265 18.603L5.45604 19.1768C3.83118 20.1315 3.01894 20.6093 2.42791 21.2893C1.90506 21.8908 1.51008 22.6042 1.26898 23.3813C0.996441 24.2597 0.99667 25.2446 1.00089 27.2143L1.00434 28.8242C1.00853 30.7807 1.01428 31.7583 1.28743 32.6308C1.52908 33.4026 1.92118 34.1118 2.4411 34.7097C3.02878 35.3855 3.83295 35.8604 5.44549 36.8115L6.41339 37.3824C6.57811 37.4796 6.661 37.5276 6.74043 37.5783C7.47597 38.0479 8.09562 38.6972 8.54748 39.4713C8.59629 39.5549 8.64316 39.6417 8.73686 39.8153C8.82941 39.9867 8.87676 40.0724 8.91957 40.1584C9.31573 40.9536 9.52785 41.8373 9.54231 42.7365C9.54387 42.8337 9.54253 42.932 9.53939 43.1295L9.52081 44.2966C9.48952 46.2615 9.47589 47.2451 9.73524 48.1259C9.96468 48.9052 10.3482 49.6228 10.8608 50.232C11.4402 50.9205 12.2435 51.4113 13.8493 52.3925L15.1829 53.2073C16.7842 54.1857 17.5846 54.6745 18.4347 54.861C19.1868 55.0261 19.9634 55.0196 20.7128 54.8413C21.5597 54.6397 22.3534 54.1358 23.9387 53.1293L24.8944 52.5225C25.0456 52.4266 25.1222 52.3784 25.1979 52.3338C25.9496 51.8907 26.7878 51.6444 27.6474 51.6151C27.734 51.6122 27.8221 51.6122 27.9984 51.6122C28.175 51.6122 28.263 51.6122 28.3498 51.6151C29.2112 51.6445 30.0546 51.8916 30.8074 52.3366C30.8736 52.3757 30.94 52.418 31.0565 52.4922L32.0725 53.139C33.6644 54.1523 34.4597 54.6581 35.3103 54.8604C36.0627 55.0394 36.8421 55.0467 37.597 54.8796C38.449 54.6909 39.2518 54.1969 40.8531 53.2114L42.1901 52.3887C43.7789 51.4109 44.5756 50.9207 45.1503 50.2348C45.6602 49.6263 46.0418 48.91 46.2699 48.1329C46.5258 47.2608 46.5104 46.2887 46.4798 44.3588L46.4598 43.1001C46.4569 42.916 46.4565 42.8243 46.4578 42.7337C46.4706 41.818 46.69 40.9177 47.0981 40.1106C47.1384 40.0309 47.1822 39.9505 47.2688 39.7915C47.3557 39.632 47.4007 39.5525 47.4458 39.4755C47.9015 38.6969 48.5267 38.0453 49.269 37.576C49.3415 37.5301 49.4162 37.4862 49.5646 37.399L49.5697 37.3965L50.5463 36.8227C52.1711 35.868 52.985 35.3897 53.576 34.7097C54.0988 34.1082 54.4933 33.3957 54.7344 32.6187C55.0053 31.7455 55.0032 30.7663 54.9991 28.8196L54.9955 27.1751C54.9913 25.2186 54.9891 24.2411 54.7159 23.3687C54.4743 22.5969 54.08 21.8876 53.5601 21.2897C52.9729 20.6146 52.1677 20.1396 50.5583 19.1902L50.5536 19.1878Z" stroke="black" stroke-width="2" stroke-linecap="round" stroke-linejoin="round"/>
<path d="M17.1966 28.0002C17.1966 34.327 22.0339 39.4559 28.0008 39.4559C33.9678 39.4559 38.805 34.327 38.805 28.0002C38.805 21.6734 33.9678 16.5445 28.0008 16.5445C22.0339 16.5445 17.1966 21.6734 17.1966 28.0002Z" stroke="black" stroke-width="2" stroke-linecap="round" stroke-linejoin="round"/>
</svg>
