<svg width="81" height="57" viewBox="0 0 81 57" fill="none" xmlns="http://www.w3.org/2000/svg">
<path d="M40.5 35.625L50.625 28.5M50.625 28.5L40.5 21.375M50.625 28.5H13.5M30.375 17.2154V17.1005C30.375 14.4402 30.375 13.1091 31.1107 12.093C31.7579 11.1992 32.7897 10.4731 34.0598 10.0177C35.5037 9.5 37.3953 9.5 41.1757 9.5H56.7007C60.481 9.5 62.3686 9.5 63.8125 10.0177C65.0825 10.4731 66.1179 11.1992 66.765 12.093C67.5 13.1081 67.5 14.4376 67.5 17.0927V39.9085C67.5 42.5635 67.5 43.8911 66.765 44.9062C66.1179 45.8 65.0825 46.5274 63.8125 46.9828C62.37 47.5 60.4834 47.5 56.7104 47.5H41.1646C37.3916 47.5 35.5023 47.5 34.0598 46.9828C32.7897 46.5274 31.7579 45.7993 31.1107 44.9055C30.375 43.8894 30.375 42.5602 30.375 39.9V39.7812" stroke="white" stroke-width="2" stroke-linecap="round" stroke-linejoin="round"/>
</svg>
